<?xml version="1.0" encoding="UTF-8"?>
<!DOCTYPE svg PUBLIC "-//W3C//DTD SVG 1.1//EN" "http://www.w3.org/Graphics/SVG/1.1/DTD/svg11.dtd">
<svg xmlns="http://www.w3.org/2000/svg" version="1.1" width="500px" height="500px" style="shape-rendering:geometricPrecision; text-rendering:geometricPrecision; image-rendering:optimizeQuality; fill-rule:evenodd; clip-rule:evenodd" xmlns:xlink="http://www.w3.org/1999/xlink">
<g><path style="opacity:1" fill="#272727" d="M -0.5,-0.5 C 166.167,-0.5 332.833,-0.5 499.5,-0.5C 499.5,166.167 499.5,332.833 499.5,499.5C 332.833,499.5 166.167,499.5 -0.5,499.5C -0.5,332.833 -0.5,166.167 -0.5,-0.5 Z"/></g>
<g><path style="opacity:1" fill="#fdfdfd" d="M 391.5,275.5 C 376.303,233.242 361.303,190.909 346.5,148.5C 325.156,148.167 303.823,148.5 282.5,149.5C 262.167,204.833 241.833,260.167 221.5,315.5C 239.833,316.833 258.167,316.833 276.5,315.5C 278.833,308.167 281.167,300.833 283.5,293.5C 303.158,292.334 322.825,292.167 342.5,293C 345.531,300.625 347.865,308.458 349.5,316.5C 368.5,316.5 387.5,316.5 406.5,316.5C 417.014,316.172 427.347,316.506 437.5,317.5C 408.271,390.874 354.604,434.374 276.5,448C 232.181,453.736 190.514,445.736 151.5,424C 146.396,421.227 141.563,418.06 137,414.5C 136.833,377.998 136.333,341.664 135.5,305.5C 135.333,282.164 135.5,258.831 136,235.5C 158.667,261.5 181.333,287.5 204,313.5C 220.055,268.392 236.388,223.392 253,178.5C 253.5,168.506 253.666,158.506 253.5,148.5C 237.167,148.5 220.833,148.5 204.5,148.5C 203.833,175.5 203.167,202.5 202.5,229.5C 179.389,202.791 156.389,175.958 133.5,149C 117.837,148.5 102.17,148.333 86.5,148.5C 86.5,204.5 86.5,260.5 86.5,316.5C 86.8297,332.675 86.4964,348.675 85.5,364.5C 45.4507,302.92 38.9507,237.92 66,169.5C 72.4485,155.424 80.2818,142.258 89.5,130C 105.163,129.5 120.83,129.333 136.5,129.5C 136.5,127.833 136.5,126.167 136.5,124.5C 122.163,124.667 107.829,124.5 93.5,124C 152.129,57.2517 224.462,35.585 310.5,59C 383.114,84.9478 428.281,135.448 446,210.5C 449.981,232.109 450.481,253.775 447.5,275.5C 428.769,276.819 410.102,276.819 391.5,275.5 Z"/></g>
<g><path style="opacity:1" fill="#040405" d="M 202.5,229.5 C 202.56,230.043 202.893,230.376 203.5,230.5C 204.5,203.175 204.833,175.841 204.5,148.5C 220.833,148.5 237.167,148.5 253.5,148.5C 253.666,158.506 253.5,168.506 253,178.5C 236.388,223.392 220.055,268.392 204,313.5C 181.333,287.5 158.667,261.5 136,235.5C 135.5,258.831 135.333,282.164 135.5,305.5C 119.675,306.496 103.675,306.83 87.5,306.5C 87.5,309.833 87.5,313.167 87.5,316.5C 87.1667,316.5 86.8333,316.5 86.5,316.5C 86.5,260.5 86.5,204.5 86.5,148.5C 102.17,148.333 117.837,148.5 133.5,149C 156.389,175.958 179.389,202.791 202.5,229.5 Z"/></g>
<g><path style="opacity:1" fill="#747475" d="M 204.5,148.5 C 204.833,175.841 204.5,203.175 203.5,230.5C 202.893,230.376 202.56,230.043 202.5,229.5C 203.167,202.5 203.833,175.5 204.5,148.5 Z"/></g>
<g><path style="opacity:1" fill="#050506" d="M 391.5,275.5 C 392.464,288.784 392.797,302.117 392.5,315.5C 397.167,315.5 401.833,315.5 406.5,315.5C 406.5,315.833 406.5,316.167 406.5,316.5C 387.5,316.5 368.5,316.5 349.5,316.5C 347.865,308.458 345.531,300.625 342.5,293C 322.825,292.167 303.158,292.334 283.5,293.5C 281.167,300.833 278.833,308.167 276.5,315.5C 258.167,316.833 239.833,316.833 221.5,315.5C 241.833,260.167 262.167,204.833 282.5,149.5C 303.823,148.5 325.156,148.167 346.5,148.5C 361.303,190.909 376.303,233.242 391.5,275.5 Z"/></g>
<g><path style="opacity:1" fill="#f8f8f8" d="M 330.5,252.5 C 319.215,254.478 307.548,255.145 295.5,254.5C 300.706,234.551 306.706,214.884 313.5,195.5C 319.771,214.314 325.438,233.314 330.5,252.5 Z"/></g>
<g><path style="opacity:1" fill="#9f9fa0" d="M 330.5,252.5 C 331.404,253.209 331.737,254.209 331.5,255.5C 319.322,255.828 307.322,255.495 295.5,254.5C 307.548,255.145 319.215,254.478 330.5,252.5 Z"/></g>
<g><path style="opacity:1" fill="#828282" d="M 406.5,316.5 C 406.5,316.167 406.5,315.833 406.5,315.5C 417.187,315.168 427.854,315.501 438.5,316.5C 438.376,317.107 438.043,317.44 437.5,317.5C 427.347,316.506 417.014,316.172 406.5,316.5 Z"/></g>
<g><path style="opacity:1" fill="#696969" d="M 86.5,316.5 C 86.8333,316.5 87.1667,316.5 87.5,316.5C 87.8328,332.847 87.4994,349.18 86.5,365.5C 85.8933,365.376 85.56,365.043 85.5,364.5C 86.4964,348.675 86.8297,332.675 86.5,316.5 Z"/></g>
<g><path style="opacity:1" fill="#2d2d2d" d="M 158.5,338.5 C 160.288,338.215 161.955,338.548 163.5,339.5C 165.418,343.004 167.584,346.337 170,349.5C 170.498,346.183 170.665,342.85 170.5,339.5C 171.833,339.5 173.167,339.5 174.5,339.5C 174.5,345.5 174.5,351.5 174.5,357.5C 172.712,357.785 171.045,357.452 169.5,356.5C 167.582,352.996 165.416,349.663 163,346.5C 162.501,350.152 162.335,353.818 162.5,357.5C 161.167,357.5 159.833,357.5 158.5,357.5C 158.5,351.167 158.5,344.833 158.5,338.5 Z"/></g>
<g><path style="opacity:1" fill="#313131" d="M 183.5,338.5 C 194.127,338.447 197.96,343.447 195,353.5C 189.667,358.833 184.333,358.833 179,353.5C 177.75,350.923 177.416,348.257 178,345.5C 179.666,343.004 181.5,340.671 183.5,338.5 Z"/></g>
<g><path style="opacity:1" fill="#777777" d="M 208.5,339.5 C 205.833,339.5 203.167,339.5 200.5,339.5C 200.5,345.5 200.5,351.5 200.5,357.5C 199.51,351.355 199.177,345.022 199.5,338.5C 202.713,338.19 205.713,338.523 208.5,339.5 Z"/></g>
<g><path style="opacity:1" fill="#343434" d="M 208.5,339.5 C 212.146,340.462 213.313,342.795 212,346.5C 211.365,347.966 210.531,349.3 209.5,350.5C 211.358,352.524 213.025,354.691 214.5,357C 212.833,357.667 211.167,357.667 209.5,357C 208.12,355.075 206.62,353.241 205,351.5C 204.505,353.473 204.338,355.473 204.5,357.5C 203.167,357.5 201.833,357.5 200.5,357.5C 200.5,351.5 200.5,345.5 200.5,339.5C 203.167,339.5 205.833,339.5 208.5,339.5 Z"/></g>
<g><path style="opacity:1" fill="#282828" d="M 227.5,339.5 C 228.833,339.5 230.167,339.5 231.5,339.5C 231.5,345.5 231.5,351.5 231.5,357.5C 230.167,357.5 228.833,357.5 227.5,357.5C 227.5,354.833 227.5,352.167 227.5,349.5C 225.5,349.5 223.5,349.5 221.5,349.5C 221.5,352.167 221.5,354.833 221.5,357.5C 220.167,357.5 218.833,357.5 217.5,357.5C 217.5,351.5 217.5,345.5 217.5,339.5C 218.833,339.5 220.167,339.5 221.5,339.5C 221.5,341.833 221.5,344.167 221.5,346.5C 223.5,346.5 225.5,346.5 227.5,346.5C 227.5,344.167 227.5,341.833 227.5,339.5 Z"/></g>
<g><path style="opacity:1" fill="#b5b5b5" d="M 227.5,339.5 C 228.919,338.549 230.585,338.216 232.5,338.5C 232.823,345.022 232.49,351.355 231.5,357.5C 231.5,351.5 231.5,345.5 231.5,339.5C 230.167,339.5 228.833,339.5 227.5,339.5 Z"/></g>
<g><path style="opacity:1" fill="#303030" d="M 241.5,338.5 C 243.144,338.286 244.644,338.62 246,339.5C 248.466,345.424 250.632,351.424 252.5,357.5C 250.042,357.773 248.375,356.773 247.5,354.5C 244.914,353.52 242.247,353.187 239.5,353.5C 239.499,357.252 237.833,358.252 234.5,356.5C 236.846,350.479 239.18,344.479 241.5,338.5 Z"/></g>
<g><path style="opacity:1" fill="#a2a2a2" d="M 259.5,339.5 C 258.167,339.5 256.833,339.5 255.5,339.5C 255.5,345.5 255.5,351.5 255.5,357.5C 254.51,351.355 254.177,345.022 254.5,338.5C 256.415,338.216 258.081,338.549 259.5,339.5 Z"/></g>
<g><path style="opacity:1" fill="#2e2e2e" d="M 259.5,339.5 C 261.837,342.681 264.004,346.014 266,349.5C 266.498,346.183 266.665,342.85 266.5,339.5C 267.833,339.5 269.167,339.5 270.5,339.5C 270.5,345.5 270.5,351.5 270.5,357.5C 269.127,357.657 267.793,357.49 266.5,357C 264.457,353.747 262.29,350.58 260,347.5C 259.502,350.817 259.335,354.15 259.5,357.5C 258.167,357.5 256.833,357.5 255.5,357.5C 255.5,351.5 255.5,345.5 255.5,339.5C 256.833,339.5 258.167,339.5 259.5,339.5 Z"/></g>
<g><path style="opacity:1" fill="#959595" d="M 266.5,339.5 C 267.919,338.549 269.585,338.216 271.5,338.5C 271.823,345.022 271.49,351.355 270.5,357.5C 270.5,351.5 270.5,345.5 270.5,339.5C 269.167,339.5 267.833,339.5 266.5,339.5 Z"/></g>
<g><path style="opacity:1" fill="#a3a3a3" d="M 279.5,339.5 C 278.167,339.5 276.833,339.5 275.5,339.5C 275.5,345.5 275.5,351.5 275.5,357.5C 274.51,351.355 274.177,345.022 274.5,338.5C 276.415,338.216 278.081,338.549 279.5,339.5 Z"/></g>
<g><path style="opacity:1" fill="#2d2d2d" d="M 279.5,339.5 C 279.5,345.5 279.5,351.5 279.5,357.5C 278.167,357.5 276.833,357.5 275.5,357.5C 275.5,351.5 275.5,345.5 275.5,339.5C 276.833,339.5 278.167,339.5 279.5,339.5 Z"/></g>
<g><path style="opacity:1" fill="#303030" d="M 296.5,338.5 C 298.144,338.286 299.644,338.62 301,339.5C 303.466,345.424 305.632,351.424 307.5,357.5C 305.042,357.773 303.375,356.773 302.5,354.5C 299.914,353.52 297.247,353.187 294.5,353.5C 294.499,357.252 292.833,358.252 289.5,356.5C 291.846,350.479 294.18,344.479 296.5,338.5 Z"/></g>
<g><path style="opacity:1" fill="#3b3b3b" d="M 308.5,338.5 C 310.288,338.215 311.955,338.548 313.5,339.5C 314.667,341.167 315.833,342.833 317,344.5C 318.167,342.833 319.333,341.167 320.5,339.5C 322.167,338.167 323.833,338.167 325.5,339.5C 323.862,342.304 322.029,344.971 320,347.5C 319.502,350.817 319.335,354.15 319.5,357.5C 317.833,357.5 316.167,357.5 314.5,357.5C 314.665,354.15 314.498,350.817 314,347.5C 311.642,344.778 309.809,341.778 308.5,338.5 Z"/></g>
<g><path style="opacity:1" fill="#323232" d="M 333.5,338.5 C 335.144,338.286 336.644,338.62 338,339.5C 340.309,345.432 342.809,351.266 345.5,357C 344.667,357.167 343.833,357.333 343,357.5C 341.028,355.589 338.695,354.255 336,353.5C 332.737,352.932 331.237,354.266 331.5,357.5C 329.712,357.785 328.045,357.452 326.5,356.5C 329.232,350.634 331.566,344.634 333.5,338.5 Z"/></g>
<g><path style="opacity:1" fill="#313131" d="M 352.5,338.5 C 361.165,338 365.332,342 365,350.5C 362.575,356.795 358.075,358.962 351.5,357C 344.539,350.313 344.872,344.147 352.5,338.5 Z"/></g>
<g><path style="opacity:1" fill="#2d2d2d" d="M 368.5,338.5 C 370.288,338.215 371.955,338.548 373.5,339.5C 375.418,343.004 377.584,346.337 380,349.5C 380.498,346.183 380.665,342.85 380.5,339.5C 381.833,339.5 383.167,339.5 384.5,339.5C 384.5,345.5 384.5,351.5 384.5,357.5C 382.712,357.785 381.045,357.452 379.5,356.5C 377.582,352.996 375.416,349.663 373,346.5C 372.501,350.152 372.335,353.818 372.5,357.5C 371.167,357.5 369.833,357.5 368.5,357.5C 368.5,351.167 368.5,344.833 368.5,338.5 Z"/></g>
<g><path style="opacity:1" fill="#fafafa" d="M 204.5,342.5 C 205.5,342.5 206.5,342.5 207.5,342.5C 207.5,343.833 207.5,345.167 207.5,346.5C 206.5,346.5 205.5,346.5 204.5,346.5C 204.5,345.167 204.5,343.833 204.5,342.5 Z"/></g>
<g><path style="opacity:1" fill="#f4f4f4" d="M 184.5,342.5 C 190.997,342.18 193.164,345.18 191,351.5C 188.333,354.167 185.667,354.167 183,351.5C 182.207,348.259 182.707,345.259 184.5,342.5 Z"/></g>
<g><path style="opacity:1" fill="#f5f5f5" d="M 353.5,342.5 C 359.546,342.573 361.713,345.573 360,351.5C 352.962,354.813 350.295,352.479 352,344.5C 352.717,343.956 353.217,343.289 353.5,342.5 Z"/></g>
<g><path style="opacity:1" fill="#d5d5d5" d="M 335.5,345.5 C 336.931,346.78 337.598,348.447 337.5,350.5C 336.022,350.762 334.689,350.429 333.5,349.5C 334.18,348.14 334.847,346.807 335.5,345.5 Z"/></g>
<g><path style="opacity:1" fill="#d6d6d6" d="M 242.5,345.5 C 244.741,346.3 245.741,347.966 245.5,350.5C 244.022,350.762 242.689,350.429 241.5,349.5C 242.246,348.264 242.579,346.93 242.5,345.5 Z"/></g>
<g><path style="opacity:1" fill="#d6d6d6" d="M 297.5,345.5 C 299.741,346.3 300.741,347.966 300.5,350.5C 299.022,350.762 297.689,350.429 296.5,349.5C 297.246,348.264 297.579,346.93 297.5,345.5 Z"/></g>
<g><path style="opacity:1" fill="#797979" d="M 244.5,371.5 C 240.932,371.759 239.599,373.759 240.5,377.5C 238.623,376.341 238.123,374.674 239,372.5C 240.678,370.447 242.511,370.113 244.5,371.5 Z"/></g>
<g><path style="opacity:1" fill="#dfdfdf" d="M 244.5,371.5 C 244.5,373.5 244.5,375.5 244.5,377.5C 243.167,378.833 241.833,378.833 240.5,377.5C 239.599,373.759 240.932,371.759 244.5,371.5 Z"/></g>
<g><path style="opacity:1" fill="#818181" d="M 257.5,376.5 C 258.81,374.565 260.143,372.565 261.5,370.5C 262.833,373.167 262.833,375.833 261.5,378.5C 260.749,377.624 260.249,376.624 260,375.5C 259.081,378.402 258.248,378.735 257.5,376.5 Z"/></g>
<g><path style="opacity:1" fill="#969696" d="M 270.5,370.5 C 272.467,370.261 274.301,370.594 276,371.5C 276.847,374.49 275.68,375.824 272.5,375.5C 272.719,376.675 272.386,377.675 271.5,378.5C 270.52,375.914 270.187,373.247 270.5,370.5 Z"/></g>
<g><path style="opacity:1" fill="#828282" d="M 286.5,370.5 C 287.497,370.47 288.164,370.97 288.5,372C 289.451,374.158 289.951,376.325 290,378.5C 289.261,377.426 288.261,376.759 287,376.5C 285.943,377.627 284.777,378.127 283.5,378C 284.601,375.528 285.601,373.028 286.5,370.5 Z"/></g>
<g><path style="opacity:1" fill="#555555" d="M 300.5,372.5 C 299.691,374.292 299.191,376.292 299,378.5C 298.182,375.773 298.348,373.106 299.5,370.5C 300.298,370.957 300.631,371.624 300.5,372.5 Z"/></g>
<g><path style="opacity:1" fill="#5e5e5e" d="M 302.5,375.5 C 303.302,374.048 303.802,372.382 304,370.5C 304.667,373.167 304.667,375.833 304,378.5C 302.961,377.756 302.461,376.756 302.5,375.5 Z"/></g>
<g><path style="opacity:1" fill="#5a5a5a" d="M 257.5,376.5 C 256.778,376.082 256.278,375.416 256,374.5C 255.667,375.833 255.333,377.167 255,378.5C 254.182,375.773 254.348,373.106 255.5,370.5C 256.768,372.304 257.435,374.304 257.5,376.5 Z"/></g>
<g><path style="opacity:1" fill="#6d6d6d" d="M 312.5,371.5 C 312.56,370.957 312.893,370.624 313.5,370.5C 314.333,371.5 315.167,372.5 316,373.5C 316.333,373.167 316.667,372.833 317,372.5C 317.014,374.471 316.681,376.471 316,378.5C 315.856,375.558 314.689,373.224 312.5,371.5 Z"/></g>
<g><path style="opacity:1" fill="#6f6f6f" d="M 300.5,372.5 C 301.906,372.973 302.573,373.973 302.5,375.5C 301.094,375.027 300.427,374.027 300.5,372.5 Z"/></g>
<g><path style="opacity:1" fill="#838383" d="M 244.5,371.5 C 247.167,373.5 247.167,375.5 244.5,377.5C 244.5,375.5 244.5,373.5 244.5,371.5 Z"/></g>
<g><path style="opacity:1" fill="#848484" d="M 226.5,377.5 C 224.076,375.772 223.91,373.772 226,371.5C 226.495,373.473 226.662,375.473 226.5,377.5 Z"/></g>
<g><path style="opacity:1" fill="#656565" d="M 226.5,377.5 C 228.226,377.185 229.893,377.019 231.5,377C 229.852,378.677 228.185,378.844 226.5,377.5 Z"/></g>
</svg>
