<?xml version="1.0" encoding="UTF-8"?>
<svg version="1.1" xmlns="http://www.w3.org/2000/svg" width="813" height="813">
<path d="M0 0 C268.29 0 536.58 0 813 0 C813 268.29 813 536.58 813 813 C544.71 813 276.42 813 0 813 C0 544.71 0 276.42 0 0 Z " fill="#272727" transform="translate(0,0)"/>
<path d="M0 0 C1.53887627 -0.01038551 1.53887627 -0.01038551 3.10884094 -0.02098083 C6.39161057 -0.03813268 9.67421896 -0.04456494 12.95703125 -0.046875 C14.07658203 -0.04821442 15.19613281 -0.04955383 16.34960938 -0.05093384 C31.52261616 -0.04698933 46.38459644 0.20880164 61.37451172 2.79296875 C63.7114928 3.19318569 66.04997433 3.53413368 68.3984375 3.859375 C118.72487259 11.09125844 169.84289087 33.82446454 209.76953125 65.203125 C210.89624353 66.06366901 212.02389072 66.92298995 213.15234375 67.78125 C232.38218462 82.50222654 251.17935187 99.86577328 265.76953125 119.203125 C266.78881999 120.50771869 267.8098005 121.81099153 268.83203125 123.11328125 C280.02193674 137.44768769 289.82006963 152.37896529 298.76953125 168.203125 C299.33969971 169.20351807 299.33969971 169.20351807 299.92138672 170.22412109 C318.51619424 203.11393899 330.89397328 240.98704447 335.40385437 278.46868896 C335.65369164 280.33690669 335.94051771 282.20045277 336.25901794 284.05819702 C337.62371684 292.0328882 338.07657404 299.74271171 338.0703125 307.82421875 C338.07674019 309.71600609 338.07674019 309.71600609 338.08329773 311.64601135 C338.08900491 314.30085442 338.09052175 316.95530426 338.08520508 319.61010742 C338.07832501 323.59897733 338.10548755 327.58737603 338.13085938 331.57617188 C338.16744294 346.70800311 337.35393878 361.28939992 334.76953125 376.203125 C334.43953125 378.183125 334.10953125 380.163125 333.76953125 382.203125 C296.80953125 382.203125 259.84953125 382.203125 221.76953125 382.203125 C211.46406345 354.72187752 211.46406345 354.72187752 208.25390625 345.83203125 C207.48074137 343.69937118 206.70754675 341.5667219 205.93432617 339.43408203 C205.54151459 338.34919495 205.148703 337.26430786 204.74398804 336.14654541 C197.21218054 315.35002408 189.61364629 294.57900979 181.95703125 273.828125 C181.52053253 272.64510803 181.08403381 271.46209106 180.63430786 270.2432251 C180.20141449 269.06999695 179.76852112 267.8967688 179.32250977 266.68798828 C178.46107195 264.35320055 177.59966213 262.01840249 176.73828125 259.68359375 C176.1105204 257.98206146 176.1105204 257.98206146 175.47007751 256.24615479 C169.20036011 239.24505001 162.98723842 222.22331331 156.76953125 205.203125 C128.05953125 205.203125 99.34953125 205.203125 69.76953125 205.203125 C65.22171875 217.7946875 65.22171875 217.7946875 60.58203125 230.640625 C53.23461683 250.95833401 45.82336966 271.25048014 38.33203125 291.515625 C30.99000052 311.37895782 23.74952253 331.27636031 16.58203125 351.203125 C9.63509784 370.5143572 2.65239279 389.81167719 -4.41796875 409.078125 C-4.79859467 410.11727051 -5.17922058 411.15641602 -5.57138062 412.22705078 C-6.63658935 415.13393087 -7.70449101 418.03980513 -8.7734375 420.9453125 C-9.08176514 421.78714081 -9.39009277 422.62896912 -9.70776367 423.49630737 C-9.99780273 424.28240387 -10.2878418 425.06850037 -10.58666992 425.87841797 C-10.83341965 426.54936493 -11.08016937 427.22031189 -11.33439636 427.91159058 C-12.55748122 431.0393971 -13.90751495 434.1162328 -15.23046875 437.203125 C10.17953125 437.203125 35.58953125 437.203125 61.76953125 437.203125 C63.25453125 430.273125 63.25453125 430.273125 64.76953125 423.203125 C66.74953125 416.933125 68.72953125 410.663125 70.76953125 404.203125 C97.82953125 404.203125 124.88953125 404.203125 152.76953125 404.203125 C156.14934486 413.21596129 156.14934486 413.21596129 157.33984375 417.18359375 C157.72462891 418.46459961 157.72462891 418.46459961 158.1171875 419.77148438 C158.50197266 421.06795898 158.50197266 421.06795898 158.89453125 422.390625 C159.15878906 423.26654297 159.42304687 424.14246094 159.6953125 425.04492188 C160.90875457 429.10718098 161.93530011 433.0319693 162.76953125 437.203125 C213.91953125 437.203125 265.06953125 437.203125 317.76953125 437.203125 C311.8913438 466.59406223 291.33421739 498.06630955 272.76953125 521.203125 C272.2904834 521.80930664 271.81143555 522.41548828 271.31787109 523.04003906 C255.80874576 542.65949316 238.65285382 561.93505541 218.76953125 577.203125 C217.71924872 578.05208937 216.67119419 578.90381507 215.625 579.7578125 C188.718943 601.57480109 157.78259555 618.31463606 125.33984375 630.25537109 C123.01729841 631.11176557 120.70534678 631.9914889 118.39453125 632.87890625 C96.2953782 641.21418184 73.0863924 645.09304357 49.76953125 648.203125 C49.11383652 648.29335938 48.45814178 648.38359375 47.78257751 648.4765625 C41.15821548 649.31162583 34.56142151 649.41500793 27.890625 649.4765625 C26.65714325 649.48899994 25.4236615 649.50143738 24.15280151 649.51425171 C20.17088086 649.54666367 16.18905456 649.56641442 12.20703125 649.578125 C11.53179287 649.58042618 10.85655449 649.58272736 10.16085434 649.58509827 C-10.74056792 649.64464349 -30.75495552 648.81334368 -51.23046875 644.203125 C-52.81698726 643.88569742 -54.4041588 643.5715027 -55.9921875 643.26171875 C-60.12098781 642.41603214 -64.17771201 641.35595941 -68.23046875 640.203125 C-69.15891602 639.94192871 -70.08736328 639.68073242 -71.04394531 639.41162109 C-83.40831634 635.88534142 -95.53203524 631.89557665 -107.48046875 627.140625 C-108.45435547 626.75374512 -109.42824219 626.36686523 -110.43164062 625.96826172 C-115.94383691 623.71641914 -121.28880523 621.22387043 -126.60058594 618.54125977 C-127.24160248 618.21907722 -127.88261902 617.89689468 -128.5430603 617.56494904 C-130.10621882 616.77904335 -131.66844209 615.99127792 -133.23046875 615.203125 C-133.40223402 585.26565291 -133.56861748 555.32815233 -133.73046875 525.390625 C-133.73641729 524.29150158 -133.74236583 523.19237816 -133.74849463 522.05994797 C-134.33661919 413.28158148 -134.33661919 413.28158148 -134.29296875 361.703125 C-134.29211273 360.68365658 -134.29125671 359.66418816 -134.29037476 358.61382675 C-134.27994755 347.14356901 -134.26176278 335.6733454 -134.23046875 324.203125 C-125.83015173 332.59032885 -117.87574715 341.26405985 -110.44140625 350.5234375 C-108.12111925 353.33565815 -105.69975741 356.02109763 -103.23046875 358.703125 C-99.13695784 363.15039612 -95.30604376 367.75029963 -91.51171875 372.453125 C-89.16327907 375.28412078 -86.72136973 377.99696098 -84.23046875 380.703125 C-80.13695784 385.15039612 -76.30604376 389.75029963 -72.51171875 394.453125 C-70.16327907 397.28412078 -67.72136973 399.99696098 -65.23046875 402.703125 C-61.14755378 407.13888448 -57.32449099 411.72482954 -53.54296875 416.41796875 C-50.23256118 420.40499679 -46.72706491 424.19366894 -43.19921875 427.98828125 C-41.23046875 430.203125 -41.23046875 430.203125 -40.23046875 432.203125 C-36.67941365 423.90187961 -33.45586802 415.52609047 -30.421875 407.0234375 C-29.74321191 405.13420726 -29.06454624 403.24497795 -28.38576508 401.35579014 C-27.67388827 399.37288499 -26.96343212 397.3894762 -26.25338745 395.40591431 C-24.02376997 389.17809786 -21.78454019 382.95373596 -19.54522133 376.72940254 C-19.04890914 375.34985276 -18.55269206 373.97026875 -18.05657005 372.59065056 C-14.14457985 361.71333425 -10.18601716 350.85423272 -6.16796875 340.015625 C0.79117669 321.23439148 7.59566311 302.39730758 14.40063477 283.55981445 C14.83160461 282.36858978 15.26257446 281.17736511 15.706604 279.95004272 C16.55325291 277.60451992 17.3961167 275.2576271 18.23504639 272.90933228 C20.03414111 267.89058414 21.85937223 262.90611012 23.9206543 257.98852539 C28.80995513 246.1646275 29.78367468 235.75719356 29.70703125 223.015625 C29.72765625 216.8075 29.74828125 210.599375 29.76953125 204.203125 C6.99953125 204.203125 -15.77046875 204.203125 -39.23046875 204.203125 C-39.23046875 241.823125 -39.23046875 279.443125 -39.23046875 318.203125 C-43.36915375 314.75422084 -46.1241165 312.37266405 -49.29296875 308.328125 C-52.9478878 303.75947619 -56.69888508 299.30123512 -60.54296875 294.890625 C-61.65886728 293.60808432 -62.77475262 292.32553218 -63.890625 291.04296875 C-64.44508301 290.40601074 -64.99954102 289.76905273 -65.57080078 289.11279297 C-71.77919498 281.96921259 -77.95870847 274.80666628 -83.91796875 267.453125 C-87.47314779 263.07160705 -91.19816412 258.88601819 -94.99609375 254.71484375 C-97.23181408 252.20161268 -99.36424557 249.63001021 -101.48046875 247.015625 C-106.15122986 241.24825041 -111.00647627 235.65502515 -115.87890625 230.05859375 C-119.1604925 226.28925573 -122.41803613 222.49976566 -125.66796875 218.703125 C-126.13952393 218.15229248 -126.6110791 217.60145996 -127.09692383 217.03393555 C-128.47492114 215.42379287 -129.85269508 213.81345905 -131.23046875 212.203125 C-133.21046875 209.893125 -135.19046875 207.583125 -137.23046875 205.203125 C-169.40546875 204.708125 -169.40546875 204.708125 -202.23046875 204.203125 C-202.23046875 323.993125 -202.23046875 443.783125 -202.23046875 567.203125 C-206.16868238 565.23401818 -208.25249994 563.43886221 -211.3359375 560.36328125 C-211.81944168 559.88169052 -212.30294586 559.40009979 -212.80110168 558.90391541 C-213.82469603 557.88167988 -214.84577769 556.85692295 -215.86450195 555.82983398 C-217.38871524 554.29508079 -218.92307343 552.77108221 -220.45898438 551.24804688 C-226.82583063 544.89029547 -232.64222707 538.26624467 -238.23046875 531.203125 C-239.27852217 529.92484193 -240.32898438 528.64852654 -241.3828125 527.375 C-248.23711966 518.99032867 -254.41446301 510.33491666 -260.23046875 501.203125 C-260.88273437 500.19378906 -261.535 499.18445313 -262.20703125 498.14453125 C-264.27865939 494.86658467 -266.27316679 491.54999395 -268.23046875 488.203125 C-268.88354004 487.09348389 -268.88354004 487.09348389 -269.54980469 485.96142578 C-278.66419061 470.31933793 -285.69438578 454.04496189 -292.23046875 437.203125 C-292.76994141 435.83075684 -292.76994141 435.83075684 -293.3203125 434.43066406 C-304.88009118 404.70717691 -311.30920031 371.65411922 -311.43359375 339.7578125 C-311.43929382 338.58969025 -311.4449939 337.42156799 -311.4508667 336.2180481 C-311.46026437 333.75230803 -311.4668297 331.28655571 -311.47070312 328.82080078 C-311.48031564 325.13680624 -311.51135186 321.45339313 -311.54296875 317.76953125 C-311.6351453 297.33626288 -310.03090421 277.23379936 -305.54296875 257.265625 C-305.28805664 256.11215576 -305.03314453 254.95868652 -304.77050781 253.77026367 C-298.91926311 228.12300681 -290.23472492 202.93153365 -278.0078125 179.6015625 C-276.43948121 176.60277519 -274.98703406 173.57515804 -273.54296875 170.515625 C-262.73290738 149.01205279 -248.18755422 129.15742988 -232.23046875 111.203125 C-231.58335937 110.46989014 -230.93625 109.73665527 -230.26953125 108.98120117 C-224.65479573 102.67143171 -218.82495607 96.61450165 -212.85546875 90.640625 C-211.98664063 89.75955078 -211.1178125 88.87847656 -210.22265625 87.97070312 C-204.20906033 81.94376343 -197.90915513 76.47888812 -191.23046875 71.203125 C-190.63814453 70.72593018 -190.04582031 70.24873535 -189.43554688 69.75708008 C-175.01554143 58.16012616 -159.34517148 48.25694284 -143.23046875 39.203125 C-142.1633667 38.59670166 -142.1633667 38.59670166 -141.07470703 37.97802734 C-98.75104506 14.10532465 -48.63098625 0.22392821 0 0 Z " fill="#FEFEFE" transform="translate(393.23046875,81.796875)"/>
<path d="M0 0 C0.99 0.33 1.98 0.66 3 1 C3.94680021 3.51665605 4.69300435 5.91022912 5.375 8.5 C5.80956687 10.06259152 6.24447195 11.62508902 6.6796875 13.1875 C7.00791504 14.39019531 7.00791504 14.39019531 7.34277344 15.6171875 C8.34727621 19.25906977 9.42456885 22.87856389 10.5 26.5 C10.91707271 27.91654718 11.33373799 29.33321438 11.75 30.75 C11.95625 31.45125 12.1625 32.1525 12.375 32.875 C14.25 39.25 14.25 39.25 14.87548828 41.37670898 C15.29049207 42.78768941 15.7055309 44.19865953 16.12060547 45.60961914 C17.1880077 49.2381998 18.25472606 52.86697941 19.3203125 56.49609375 C19.53727783 57.23448486 19.75424316 57.97287598 19.9777832 58.73364258 C20.40404351 60.1851144 20.82967799 61.63677019 21.25463867 63.08862305 C22.62159809 67.74988337 24.03751056 72.39333407 25.51953125 77.01953125 C26 79 26 79 26 83 C9.5 83 -7 83 -24 83 C-21.65240742 73.6096297 -19.38214677 64.92907676 -16.27734375 55.87890625 C-14.66516857 51.08631584 -13.34870521 46.21949443 -12.02026367 41.34228516 C-10.20945078 34.70708476 -8.30498158 28.101472 -6.375 21.5 C-6.0857666 20.50943604 -5.7965332 19.51887207 -5.49853516 18.49829102 C-3.69155364 12.32435101 -1.85684365 6.15912171 0 0 Z " fill="#FBFBFB" transform="translate(504,351)"/>
<path d="M0 0 C4.83858548 2.32968931 7.67031069 5.16141452 10 10 C10.80165291 15.0226009 10.59932381 18.80135239 8.3125 23.375 C7.549375 24.24125 6.78625 25.1075 6 26 C5.34 26.78375 4.68 27.5675 4 28.375 C-0.85392036 31.00420686 -5.6206715 30.94636335 -11 30 C-14.88522553 27.98370192 -17.19429659 25.33116216 -19.4375 21.625 C-20.5728941 16.32649419 -20.82525112 12.61876181 -18.375 7.8125 C-12.74485195 1.14521942 -8.74382426 -1.52376091 0 0 Z " fill="#303030" transform="translate(586,545)"/>
<path d="M0 0 C4.09825266 1.44644212 7.38413663 3.51240458 10.08203125 6.99609375 C12.11429472 11.43248166 11.7001527 16.27396928 11 21 C8.8897437 25.45498552 6.63198151 28.22604963 2 30 C-3.34488104 30.66198068 -7.60348339 30.67332051 -12.5 28.3125 C-16.89443074 24.24765156 -18.18657624 21.53610427 -18.4375 15.5625 C-18.28389948 10.59385719 -17.46570672 7.73931515 -14 4 C-9.4419324 0.06348707 -5.82193413 -0.94504342 0 0 Z " fill="#2E2E2E" transform="translate(316,545)"/>
<path d="M0 0 C7 0 7 0 8.80444336 1.56054688 C9.22862549 2.27275391 9.65280762 2.98496094 10.08984375 3.71875 C10.56357422 4.48574219 11.03730469 5.25273438 11.52539062 6.04296875 C11.99138672 6.85378906 12.45738281 7.66460938 12.9375 8.5 C13.43056641 9.31082031 13.92363281 10.12164063 14.43164062 10.95703125 C15.64383978 12.95774831 16.82499869 14.97721294 18 17 C18.33 11.72 18.66 6.44 19 1 C20.98 1 22.96 1 25 1 C25 10.57 25 20.14 25 30 C18 30 18 30 16.28735352 28.53125 C15.90506592 27.8609375 15.52277832 27.190625 15.12890625 26.5 C14.48598633 25.4171875 14.48598633 25.4171875 13.83007812 24.3125 C13.41177734 23.549375 12.99347656 22.78625 12.5625 22 C12.11712891 21.236875 11.67175781 20.47375 11.21289062 19.6875 C10.11868055 17.80498805 9.05618414 15.90410662 8 14 C7.67 19.28 7.34 24.56 7 30 C4.69 30 2.38 30 0 30 C0 20.1 0 10.2 0 0 Z " fill="#2D2D2D" transform="translate(601,545)"/>
<path d="M0 0 C7 0 7 0 8.80444336 1.56054688 C9.22862549 2.27275391 9.65280762 2.98496094 10.08984375 3.71875 C10.56357422 4.48574219 11.03730469 5.25273438 11.52539062 6.04296875 C11.99138672 6.85378906 12.45738281 7.66460938 12.9375 8.5 C13.43056641 9.31082031 13.92363281 10.12164063 14.43164062 10.95703125 C15.64383978 12.95774831 16.82499869 14.97721294 18 17 C18.33 11.72 18.66 6.44 19 1 C20.98 1 22.96 1 25 1 C25 10.57 25 20.14 25 30 C18 30 18 30 16.28735352 28.53125 C15.90506592 27.8609375 15.52277832 27.190625 15.12890625 26.5 C14.48598633 25.4171875 14.48598633 25.4171875 13.83007812 24.3125 C13.41177734 23.549375 12.99347656 22.78625 12.5625 22 C12.11712891 21.236875 11.67175781 20.47375 11.21289062 19.6875 C10.11868055 17.80498805 9.05618414 15.90410662 8 14 C7.67 19.28 7.34 24.56 7 30 C4.69 30 2.38 30 0 30 C0 20.1 0 10.2 0 0 Z " fill="#2D2D2D" transform="translate(267,545)"/>
<path d="M0 0 C2.31 0 4.62 0 7 0 C7 9.9 7 19.8 7 30 C0 30 0 30 -1.69677734 28.65478516 C-2.0727002 28.03909668 -2.44862305 27.4234082 -2.8359375 26.7890625 C-3.26003906 26.12132812 -3.68414062 25.45359375 -4.12109375 24.765625 C-4.53488281 24.05921875 -4.94867188 23.3528125 -5.375 22.625 C-5.81199219 21.92632813 -6.24898438 21.22765625 -6.69921875 20.5078125 C-8.22875026 18.04540883 -9.70338604 15.59322791 -11 13 C-11.33 18.61 -11.66 24.22 -12 30 C-13.98 30 -15.96 30 -18 30 C-18 20.43 -18 10.86 -18 1 C-11 1 -11 1 -9.28735352 2.37695312 C-8.71392212 3.31958008 -8.71392212 3.31958008 -8.12890625 4.28125 C-7.48598633 5.29638672 -7.48598633 5.29638672 -6.83007812 6.33203125 C-6.41177734 7.04746094 -5.99347656 7.76289062 -5.5625 8.5 C-5.11712891 9.21542969 -4.67175781 9.93085937 -4.21289062 10.66796875 C-3.11945415 12.43157596 -2.05665134 14.2141104 -1 16 C-0.67 10.72 -0.34 5.44 0 0 Z " fill="#2C2C2C" transform="translate(439,545)"/>
<path d="M0 0 C14.63636364 0 14.63636364 0 19 4 C20 5 20 5 20.25 8.25 C19.98977142 12.15342873 19.396006 13.95891546 17 17 C16.34 17 15.68 17 15 17 C17.60836278 21.63708939 20.77002574 25.78744458 24 30 C20.83546179 30.58124171 18.14371736 30.76105816 15 30 C12.12875253 27.33161241 10.05238306 24.32604843 8 21 C7.67 23.97 7.34 26.94 7 30 C4.69 30 2.38 30 0 30 C0 20.1 0 10.2 0 0 Z " fill="#313131" transform="translate(333,545)"/>
<path d="M0 0 C2.31 0 4.62 0 7 0 C8.57090902 3.94930174 10.13737167 7.90032854 11.69970703 11.85302734 C12.2320106 13.19791391 12.76553404 14.54231832 13.30029297 15.88623047 C14.06798081 17.81613217 14.8312893 19.74771573 15.59375 21.6796875 C16.05458984 22.84226074 16.51542969 24.00483398 16.99023438 25.20263672 C18 28 18 28 18 30 C15.69 30 13.38 30 11 30 C10.34 28.35 9.68 26.7 9 25 C5.04 24.67 1.08 24.34 -3 24 C-3.33 25.98 -3.66 27.96 -4 30 C-6.64 30 -9.28 30 -12 30 C-10.37829996 25.74873345 -8.75207211 21.49921311 -7.125 17.25 C-6.66480469 16.0434375 -6.20460938 14.836875 -5.73046875 13.59375 C-5.28574219 12.43359375 -4.84101563 11.2734375 -4.3828125 10.078125 C-3.97434082 9.00981445 -3.56586914 7.94150391 -3.14501953 6.84082031 C-2.19619371 4.48676119 -1.17927415 2.24488333 0 0 Z " fill="#2F2F2F" transform="translate(399,545)"/>
<path d="M0 0 C1.4540625 0.0309375 1.4540625 0.0309375 2.9375 0.0625 C6.26057208 7.05037853 9.42461786 14.07222398 12.3125 21.25 C12.57498535 21.89718994 12.8374707 22.54437988 13.10791016 23.21118164 C14.9375 27.81460639 14.9375 27.81460639 14.9375 30.0625 C12.6275 30.0625 10.3175 30.0625 7.9375 30.0625 C7.2775 28.0825 6.6175 26.1025 5.9375 24.0625 C1.9775 24.0625 -1.9825 24.0625 -6.0625 24.0625 C-6.7225 26.0425 -7.3825 28.0225 -8.0625 30.0625 C-10.3725 30.0625 -12.6825 30.0625 -15.0625 30.0625 C-13.0692502 24.72661824 -11.06930475 19.39329882 -9.0625 14.0625 C-8.81209961 13.39669922 -8.56169922 12.73089844 -8.30371094 12.04492188 C-7.62229681 10.23708846 -6.9362773 8.43099289 -6.25 6.625 C-5.85167969 5.57441406 -5.45335937 4.52382813 -5.04296875 3.44140625 C-3.65533542 0.07459868 -3.65533542 0.07459868 0 0 Z " fill="#2F2F2F" transform="translate(549.0625,544.9375)"/>
<path d="M0 0 C1.4540625 0.0309375 1.4540625 0.0309375 2.9375 0.0625 C6.26057208 7.05037853 9.42461786 14.07222398 12.3125 21.25 C12.57498535 21.89718994 12.8374707 22.54437988 13.10791016 23.21118164 C14.9375 27.81460639 14.9375 27.81460639 14.9375 30.0625 C12.6275 30.0625 10.3175 30.0625 7.9375 30.0625 C7.2775 28.0825 6.6175 26.1025 5.9375 24.0625 C1.9775 24.0625 -1.9825 24.0625 -6.0625 24.0625 C-6.7225 26.0425 -7.3825 28.0225 -8.0625 30.0625 C-10.3725 30.0625 -12.6825 30.0625 -15.0625 30.0625 C-13.0692502 24.72661824 -11.06930475 19.39329882 -9.0625 14.0625 C-8.81209961 13.39669922 -8.56169922 12.73089844 -8.30371094 12.04492188 C-7.62229681 10.23708846 -6.9362773 8.43099289 -6.25 6.625 C-5.85167969 5.57441406 -5.45335937 4.52382813 -5.04296875 3.44140625 C-3.65533542 0.07459868 -3.65533542 0.07459868 0 0 Z " fill="#2F2F2F" transform="translate(490.0625,544.9375)"/>
<path d="M0 0 C22.77 0.33 45.54 0.66 69 1 C69 3.31 69 5.62 69 8 C53.74312316 8.07729349 38.50285362 7.83564838 23.25 7.5 C20.98047287 7.4516293 18.71094162 7.40345116 16.44140625 7.35546875 C10.96088829 7.23919026 5.48042518 7.12056819 0 7 C0 4.69 0 2.38 0 0 Z " fill="#303030" transform="translate(191,253)"/>
<path d="M0 0 C2.31 0 4.62 0 7 0 C7 9.9 7 19.8 7 30 C4.69 30 2.38 30 0 30 C0 26.04 0 22.08 0 18 C-3.3 18 -6.6 18 -10 18 C-10 21.96 -10 25.92 -10 30 C-11.98 30 -13.96 30 -16 30 C-16 20.43 -16 10.86 -16 1 C-14.02 1 -12.04 1 -10 1 C-10 4.63 -10 8.26 -10 12 C-6.7 12 -3.4 12 0 12 C0 8.04 0 4.08 0 0 Z " fill="#2E2E2E" transform="translate(377,545)"/>
<path d="M0 0 C5.10880829 -0.70466321 5.10880829 -0.70466321 8 0 C10.49126669 2.37660588 12.25736814 5.04280654 14 8 C16.66735273 5.51047079 18.55746343 3.36591866 20 0 C22.64 0 25.28 0 28 0 C26.64090937 3.83140624 24.84288205 6.67843329 22.4375 9.9375 C18.19629812 16.37849539 17.92273641 22.43920557 18 30 C15.69 30 13.38 30 11 30 C11.04382813 29.16339844 11.08765625 28.32679688 11.1328125 27.46484375 C11.10749264 16.03292698 6.63000584 9.89214939 0 1 C0 0.67 0 0.34 0 0 Z " fill="#323232" transform="translate(505,545)"/>
<path d="M0 0 C1.94140625 0.44921875 1.94140625 0.44921875 4.44140625 2.57421875 C6.19912201 5.94317396 6.48816152 7.70003972 5.94140625 11.44921875 C3.67670037 16.08157169 3.67670037 16.08157169 0.94140625 17.44921875 C-2.52360314 17.8258502 -4.42207378 17.83448084 -7.43359375 16.01171875 C-9.84346283 12.21154058 -9.69324858 8.82753372 -9.05859375 4.44921875 C-7.33060539 0.02124857 -4.60043275 -0.2456953 0 0 Z " fill="#F9F9F9" transform="translate(583.05859375,551.55078125)"/>
<path d="M0 0 C3.9375 0.5625 3.9375 0.5625 5.9375 2.0625 C7.36040841 5.61977103 7.71050888 8.83733339 6.9375 12.5625 C4.875 15.625 4.875 15.625 1.9375 17.5625 C-1.6875 17.6875 -1.6875 17.6875 -5.0625 16.5625 C-7.42705193 13.89284459 -7.98764362 12.07580091 -8.5 8.5625 C-7.71603461 3.18673732 -5.50496081 0.29400343 0 0 Z " fill="#FAFAFA" transform="translate(313.0625,551.4375)"/>
<path d="M0 0 C1.98 0 3.96 0 6 0 C6 9.57 6 19.14 6 29 C4.02 29 2.04 29 0 29 C0 19.43 0 9.86 0 0 Z " fill="#272727" transform="translate(453,546)"/>
<path d="M0 0 C2 2 2 2 2.25 5.4375 C2 9 2 9 0 12 C-3.0996593 12.39570119 -5.12198451 12.49754211 -7.875 10.9375 C-9.66235303 7.85928089 -9.43386742 5.47093932 -9 2 C-6.17266771 -1.35091234 -4.03066587 -1.37891201 0 0 Z " fill="#F8F8F8" transform="translate(394,593)"/>
<path d="M0 0 C6 0 6 0 9 2 C8.125 6.875 8.125 6.875 7 8 C5.33382885 8.04063832 3.66611905 8.042721 2 8 C2 9.65 2 11.3 2 13 C1.34 13 0.68 13 0 13 C0 8.71 0 4.42 0 0 Z " fill="#606060" transform="translate(435,592)"/>
<path d="M0 0 C0.99 0.33 1.98 0.66 3 1 C4.1875 4.0625 4.1875 4.0625 5 7 C7.22189824 4.77810176 7.92598892 2.91517292 9 0 C9.99 0 10.98 0 12 0 C12 3.96 12 7.92 12 12 C11.34 12 10.68 12 10 12 C9.67 10.02 9.34 8.04 9 6 C8.34 7.98 7.68 9.96 7 12 C6.01 11.67 5.02 11.34 4 11 C2.8125 8.4375 2.8125 8.4375 2 6 C1.67 7.98 1.34 9.96 1 12 C0.67 12 0.34 12 0 12 C0 8.04 0 4.08 0 0 Z " fill="#494949" transform="translate(410,593)"/>
<path d="M0 0 C2 2 2 2 2.25 5.4375 C2 9 2 9 0 12 C-3.0996593 12.39570119 -5.12198451 12.49754211 -7.875 10.9375 C-9.66235303 7.85928089 -9.43386742 5.47093932 -9 2 C-6.17266771 -1.35091234 -4.03066587 -1.37891201 0 0 Z M-7 2 C-7.25003964 5.45821402 -7.25003964 5.45821402 -7 9 C-6.34 9.66 -5.68 10.32 -5 11 C-2.21762345 10.59471099 -2.21762345 10.59471099 0 9 C0.16666667 5.5 0.16666667 5.5 0 2 C-1.0595877 0.71677453 -1.0595877 0.71677453 -3.5 0.875 C-5.9404123 0.71677453 -5.9404123 0.71677453 -7 2 Z " fill="#595959" transform="translate(394,593)"/>
<path d="M0 0 C0.99 0 1.98 0 3 0 C3.53190541 1.43344 4.05015258 2.87195367 4.5625 4.3125 C4.85253906 5.11300781 5.14257812 5.91351562 5.44140625 6.73828125 C6 9 6 9 5 12 C2 6.375 2 6.375 2 3 C1.34 3 0.68 3 0 3 C-0.66 5.97 -1.32 8.94 -2 12 C-2.66 12 -3.32 12 -4 12 C-3.45660208 7.43545749 -2.20536179 4.0271824 0 0 Z " fill="#5A5A5A" transform="translate(460,593)"/>
<path d="M0 0 C2.475 0.495 2.475 0.495 5 1 C5.38218767 2.65614657 5.71395102 4.32457024 6 6 C5 7 5 7 2.4375 7.0625 C1.2309375 7.0315625 1.2309375 7.0315625 0 7 C0 4.69 0 2.38 0 0 Z " fill="#F9F9F9" transform="translate(340,551)"/>
<path d="M0 0 C0.99 0 1.98 0 3 0 C3 3.96 3 7.92 3 12 C2.34 12 1.68 12 1 12 C0.67 10.02 0.34 8.04 0 6 C-0.66 6.66 -1.32 7.32 -2 8 C-1.125 2.25 -1.125 2.25 0 0 Z " fill="#616161" transform="translate(419,593)"/>
<path d="M0 0 C3 1 3 1 5 4 C6.32 2.68 7.64 1.36 9 0 C8.01 3.96 7.02 7.92 6 12 C5.34 12 4.68 12 4 12 C3.71125 10.7625 3.4225 9.525 3.125 8.25 C2.38665206 5.27551258 1.55525067 2.666144 0 0 Z " fill="#555555" transform="translate(501,593)"/>
<path d="M0 0 C2.5654594 2.5654594 2.54046087 4.47686668 3 8 C1.02 8 -0.96 8 -3 8 C-1.125 1.125 -1.125 1.125 0 0 Z " fill="#E5E5E5" transform="translate(402,555)"/>
<path d="M0 0 C0.66 0 1.32 0 2 0 C2.66 2.31 3.32 4.62 4 7 C2.02 7 0.04 7 -2 7 C-1.34 4.69 -0.68 2.38 0 0 Z " fill="#EDEDED" transform="translate(548,556)"/>
<path d="M0 0 C0.66 0 1.32 0 2 0 C2.66 2.31 3.32 4.62 4 7 C2.02 7 0.04 7 -2 7 C-1.34 4.69 -0.68 2.38 0 0 Z " fill="#EDEDED" transform="translate(489,556)"/>
<path d="M0 0 C2.475 0.495 2.475 0.495 5 1 C4.67 2.32 4.34 3.64 4 5 C2.68 5 1.36 5 0 5 C0 3.35 0 1.7 0 0 Z " fill="#FAFAFA" transform="translate(437,594)"/>
<path d="M0 0 C0.66 0 1.32 0 2 0 C2.66 1.98 3.32 3.96 4 6 C2.02 6 0.04 6 -2 6 C-1.34 4.02 -0.68 2.04 0 0 Z " fill="#B5B5B5" transform="translate(460,596)"/>
</svg>
